<svg width="173" height="81" viewBox="0 0 173 81" fill="none" xmlns="http://www.w3.org/2000/svg">
<path d="M43.2686 29.4737V27.3178L64.409 16.7808V20.0585L47.2068 28.2206L64.409 35.4366V38.7576L43.2686 29.4737Z" fill="#212529"/>
<path d="M105.5 38.7561V35.4351L122.724 28.2638L105.5 20.0585V16.7808L126.64 27.3178V29.4737L105.5 38.7561Z" fill="#212529"/>
<path fill-rule="evenodd" clip-rule="evenodd" d="M72.1792 31.1234C72.1792 32.0293 72.298 33.0571 73.011 34.6265C73.724 36.2577 75.4477 38.1404 76.8737 38.1404C77.9431 38.1404 79.6669 37.8379 81.4493 36.9228C82.8752 36.1975 86.2039 34.0833 87.7487 32.7546C88.224 32.3919 88.4616 32.6342 87.9863 34.2052C87.69 35.0509 87.0357 37.6574 86.3814 39.591C84.8953 43.7592 82.6977 45.2685 81.1514 45.2685C80.6159 45.2685 79.8443 44.7855 79.2502 44.2407C78.7162 43.8179 77.349 42.9722 76.636 42.9722C76.1005 42.9722 75.3875 43.2129 74.7348 43.9382C74.1406 44.5416 74.0804 45.2068 74.7348 45.8101C75.6854 46.716 79.4292 48.0447 80.8551 48.0447C81.7456 48.0447 82.8166 47.7422 83.8258 47.1389C85.6082 46.1126 88.6391 43.2731 89.7086 39.8302C90.7194 36.5586 91.9663 31.787 92.6206 29.0077C93.2147 26.4706 93.8691 24.1759 95.6515 22.6049C96.1854 22.1821 96.3058 21.7592 95.9478 21.3966C95.5311 20.7932 94.9971 20.6111 94.5805 20.6111C93.6299 20.6111 92.3228 21.5169 91.491 22.3024C90.8366 22.9676 90.4802 23.4506 90.4215 24.2345C90.1839 26.8919 88.4015 29.0061 86.3814 30.7577C84.1237 32.6913 80.2008 35.0463 78.1808 35.0463C76.9323 35.0463 75.8042 33.7777 75.8042 30.5756C75.8042 27.0725 77.6468 22.3009 80.974 18.5555C84.7765 14.3271 88.045 12.4552 89.3521 12.4552C89.9462 12.4552 90.4802 12.6959 91.0758 12.9984C91.6098 13.3611 92.3829 13.4814 93.3336 13.2407C93.9879 13.0601 94.9385 12.4552 95.3536 12.0324C95.8876 11.5493 95.7101 10.8842 95.2348 10.4614C94.6993 9.97835 93.4524 9.37341 92.2641 9.37341C90.4215 9.37341 87.4508 10.0385 84.0048 12.2731C76.4585 17.2253 72.1792 24.4737 72.1792 31.0586V31.1234V31.1234Z" fill="#212529"/>
<path d="M11.12 68.78H14.08V74.46C13.32 75.0333 12.44 75.4733 11.44 75.78C10.44 76.0867 9.43333 76.24 8.42 76.24C6.96667 76.24 5.66 75.9333 4.5 75.32C3.34 74.6933 2.42667 73.8333 1.76 72.74C1.10667 71.6333 0.78 70.3867 0.78 69C0.78 67.6133 1.10667 66.3733 1.76 65.28C2.42667 64.1733 3.34667 63.3133 4.52 62.7C5.69333 62.0733 7.01333 61.76 8.48 61.76C9.70667 61.76 10.82 61.9667 11.82 62.38C12.82 62.7933 13.66 63.3933 14.34 64.18L12.26 66.1C11.26 65.0467 10.0533 64.52 8.64 64.52C7.74667 64.52 6.95333 64.7067 6.26 65.08C5.56667 65.4533 5.02667 65.98 4.64 66.66C4.25333 67.34 4.06 68.12 4.06 69C4.06 69.8667 4.25333 70.64 4.64 71.32C5.02667 72 5.56 72.5333 6.24 72.92C6.93333 73.2933 7.72 73.48 8.6 73.48C9.53333 73.48 10.3733 73.28 11.12 72.88V68.78ZM21.2097 65.08C22.8764 65.08 24.1564 65.48 25.0497 66.28C25.943 67.0667 26.3897 68.26 26.3897 69.86V76H23.4697V74.66C22.883 75.66 21.7897 76.16 20.1897 76.16C19.363 76.16 18.643 76.02 18.0297 75.74C17.4297 75.46 16.9697 75.0733 16.6497 74.58C16.3297 74.0867 16.1697 73.5267 16.1697 72.9C16.1697 71.9 16.543 71.1133 17.2897 70.54C18.0497 69.9667 19.2164 69.68 20.7897 69.68H23.2697C23.2697 69 23.063 68.48 22.6497 68.12C22.2364 67.7467 21.6164 67.56 20.7897 67.56C20.2164 67.56 19.6497 67.6533 19.0897 67.84C18.543 68.0133 18.0764 68.2533 17.6897 68.56L16.5697 66.38C17.1564 65.9667 17.8564 65.6467 18.6697 65.42C19.4964 65.1933 20.343 65.08 21.2097 65.08ZM20.9697 74.06C21.503 74.06 21.9764 73.94 22.3897 73.7C22.803 73.4467 23.0964 73.08 23.2697 72.6V71.5H21.1297C19.8497 71.5 19.2097 71.92 19.2097 72.76C19.2097 73.16 19.363 73.48 19.6697 73.72C19.9897 73.9467 20.423 74.06 20.9697 74.06ZM29.2134 61.16H32.3334V76H29.2134V61.16ZM39.5691 65.08C41.2357 65.08 42.5157 65.48 43.4091 66.28C44.3024 67.0667 44.7491 68.26 44.7491 69.86V76H41.8291V74.66C41.2424 75.66 40.1491 76.16 38.5491 76.16C37.7224 76.16 37.0024 76.02 36.3891 75.74C35.7891 75.46 35.3291 75.0733 35.0091 74.58C34.6891 74.0867 34.5291 73.5267 34.5291 72.9C34.5291 71.9 34.9024 71.1133 35.6491 70.54C36.4091 69.9667 37.5757 69.68 39.1491 69.68H41.6291C41.6291 69 41.4224 68.48 41.0091 68.12C40.5957 67.7467 39.9757 67.56 39.1491 67.56C38.5757 67.56 38.0091 67.6533 37.4491 67.84C36.9024 68.0133 36.4357 68.2533 36.0491 68.56L34.9291 66.38C35.5157 65.9667 36.2157 65.6467 37.0291 65.42C37.8557 65.1933 38.7024 65.08 39.5691 65.08ZM39.3291 74.06C39.8624 74.06 40.3357 73.94 40.7491 73.7C41.1624 73.4467 41.4557 73.08 41.6291 72.6V71.5H39.4891C38.2091 71.5 37.5691 71.92 37.5691 72.76C37.5691 73.16 37.7224 73.48 38.0291 73.72C38.3491 73.9467 38.7824 74.06 39.3291 74.06ZM54.4128 76L52.0528 72.7L49.6128 76H46.2128L50.3528 70.58L46.3528 65.24H49.8528L52.1328 68.38L54.4728 65.24H57.7928L53.7928 70.5L57.9528 76H54.4128ZM69.5419 65.24L64.6819 76.66C64.1885 77.9 63.5752 78.7733 62.8419 79.28C62.1219 79.7867 61.2485 80.04 60.2219 80.04C59.6619 80.04 59.1085 79.9533 58.5619 79.78C58.0152 79.6067 57.5685 79.3667 57.2219 79.06L58.3619 76.84C58.6019 77.0533 58.8752 77.22 59.1819 77.34C59.5019 77.46 59.8152 77.52 60.1219 77.52C60.5485 77.52 60.8952 77.4133 61.1619 77.2C61.4285 77 61.6685 76.66 61.8819 76.18L61.9219 76.08L57.2619 65.24H60.4819L63.5019 72.54L66.5419 65.24H69.5419ZM97.8591 62L93.2791 76H89.7991L86.7191 66.52L83.5391 76H80.0791L75.4791 62H78.8391L81.9991 71.84L85.2991 62H88.2991L91.4991 71.92L94.7591 62H97.8591ZM109.187 70.66C109.187 70.7 109.167 70.98 109.127 71.5H100.987C101.134 72.1667 101.48 72.6933 102.027 73.08C102.574 73.4667 103.254 73.66 104.067 73.66C104.627 73.66 105.12 73.58 105.547 73.42C105.987 73.2467 106.394 72.98 106.767 72.62L108.427 74.42C107.414 75.58 105.934 76.16 103.987 76.16C102.774 76.16 101.7 75.9267 100.767 75.46C99.8337 74.98 99.1137 74.32 98.607 73.48C98.1004 72.64 97.847 71.6867 97.847 70.62C97.847 69.5667 98.0937 68.62 98.587 67.78C99.0937 66.9267 99.7804 66.2667 100.647 65.8C101.527 65.32 102.507 65.08 103.587 65.08C104.64 65.08 105.594 65.3067 106.447 65.76C107.3 66.2133 107.967 66.8667 108.447 67.72C108.94 68.56 109.187 69.54 109.187 70.66ZM103.607 67.44C102.9 67.44 102.307 67.64 101.827 68.04C101.347 68.44 101.054 68.9867 100.947 69.68H106.247C106.14 69 105.847 68.46 105.367 68.06C104.887 67.6467 104.3 67.44 103.607 67.44ZM117.624 65.08C118.624 65.08 119.531 65.3133 120.344 65.78C121.171 66.2333 121.818 66.88 122.284 67.72C122.751 68.5467 122.984 69.5133 122.984 70.62C122.984 71.7267 122.751 72.7 122.284 73.54C121.818 74.3667 121.171 75.0133 120.344 75.48C119.531 75.9333 118.624 76.16 117.624 76.16C116.144 76.16 115.018 75.6933 114.244 74.76V76H111.264V61.16H114.384V66.38C115.171 65.5133 116.251 65.08 117.624 65.08ZM117.084 73.6C117.884 73.6 118.538 73.3333 119.044 72.8C119.564 72.2533 119.824 71.5267 119.824 70.62C119.824 69.7133 119.564 68.9933 119.044 68.46C118.538 67.9133 117.884 67.64 117.084 67.64C116.284 67.64 115.624 67.9133 115.104 68.46C114.598 68.9933 114.344 69.7133 114.344 70.62C114.344 71.5267 114.598 72.2533 115.104 72.8C115.624 73.3333 116.284 73.6 117.084 73.6ZM125.073 61.16H128.193V76H125.073V61.16ZM131.088 65.24H134.208V76H131.088V65.24ZM132.648 63.74C132.075 63.74 131.608 63.5733 131.248 63.24C130.888 62.9067 130.708 62.4933 130.708 62C130.708 61.5067 130.888 61.0933 131.248 60.76C131.608 60.4267 132.075 60.26 132.648 60.26C133.222 60.26 133.688 60.42 134.048 60.74C134.408 61.06 134.588 61.46 134.588 61.94C134.588 62.46 134.408 62.8933 134.048 63.24C133.688 63.5733 133.222 63.74 132.648 63.74ZM143.644 65.08C144.977 65.08 146.051 65.48 146.864 66.28C147.691 67.08 148.104 68.2667 148.104 69.84V76H144.984V70.32C144.984 69.4667 144.797 68.8333 144.424 68.42C144.051 67.9933 143.511 67.78 142.804 67.78C142.017 67.78 141.391 68.0267 140.924 68.52C140.457 69 140.224 69.72 140.224 70.68V76H137.104V65.24H140.084V66.5C140.497 66.0467 141.011 65.7 141.624 65.46C142.237 65.2067 142.911 65.08 143.644 65.08ZM155.552 71.78L154.052 73.26V76H150.932V61.16H154.052V69.56L158.612 65.24H162.332L157.852 69.8L162.732 76H158.952L155.552 71.78ZM167.404 76.16C166.51 76.16 165.637 76.0533 164.784 75.84C163.93 75.6133 163.25 75.3333 162.744 75L163.784 72.76C164.264 73.0667 164.844 73.32 165.524 73.52C166.204 73.7067 166.87 73.8 167.524 73.8C168.844 73.8 169.504 73.4733 169.504 72.82C169.504 72.5133 169.324 72.2933 168.964 72.16C168.604 72.0267 168.05 71.9133 167.304 71.82C166.424 71.6867 165.697 71.5333 165.124 71.36C164.55 71.1867 164.05 70.88 163.624 70.44C163.21 70 163.004 69.3733 163.004 68.56C163.004 67.88 163.197 67.28 163.584 66.76C163.984 66.2267 164.557 65.8133 165.304 65.52C166.064 65.2267 166.957 65.08 167.984 65.08C168.744 65.08 169.497 65.1667 170.244 65.34C171.004 65.5 171.63 65.7267 172.124 66.02L171.084 68.24C170.137 67.7067 169.104 67.44 167.984 67.44C167.317 67.44 166.817 67.5333 166.484 67.72C166.15 67.9067 165.984 68.1467 165.984 68.44C165.984 68.7733 166.164 69.0067 166.524 69.14C166.884 69.2733 167.457 69.4 168.244 69.52C169.124 69.6667 169.844 69.8267 170.404 70C170.964 70.16 171.45 70.46 171.864 70.9C172.277 71.34 172.484 71.9533 172.484 72.74C172.484 73.4067 172.284 74 171.884 74.52C171.484 75.04 170.897 75.4467 170.124 75.74C169.364 76.02 168.457 76.16 167.404 76.16Z" fill="#212529"/>
</svg>
