<svg width="30" height="30" viewBox="0 0 30 30" fill="none" xmlns="http://www.w3.org/2000/svg">
<path d="M15 2.50012C8.10003 2.50012 2.5 8.10015 2.5 15.0001C2.5 21.9001 8.10003 27.5001 15 27.5001C21.9 27.5001 27.5 21.9001 27.5 15.0001C27.5 8.10015 21.9 2.50012 15 2.50012ZM24.325 11.4001L20.85 12.8376C20.2125 11.1376 18.875 9.78765 17.1625 9.1626L18.6 5.68762C21.225 6.68762 23.3125 8.77515 24.325 11.4001ZM15 18.7501C12.925 18.7501 11.25 17.0751 11.25 15.0001C11.25 12.9251 12.925 11.2501 15 11.2501C17.075 11.2501 18.75 12.9251 18.75 15.0001C18.75 17.0751 17.075 18.7501 15 18.7501ZM11.4125 5.67512L12.875 9.15015C11.15 9.77512 9.78753 11.1376 9.15003 12.8626L5.675 11.4126C6.6875 8.77515 8.77502 6.68762 11.4125 5.67512ZM5.675 18.5876L9.15003 17.1501C9.78753 18.8751 11.1375 20.2251 12.8625 20.8501L11.4 24.3251C8.77503 23.3126 6.6875 21.2251 5.675 18.5876ZM18.6 24.3251L17.1625 20.8501C18.875 20.2126 20.225 18.8626 20.85 17.1376L24.325 18.6001C23.3125 21.2251 21.225 23.3126 18.6 24.3251Z" fill="#714B67"/>
</svg>
