<svg width="30" height="30" viewBox="0 0 30 30" fill="none" xmlns="http://www.w3.org/2000/svg">
<path d="M13.125 5.62506C13.475 5.62506 13.75 5.90006 13.75 6.25006V8.75002H21.25V16.25H23.75C24.1 16.25 24.375 16.525 24.375 16.8751C24.375 17.225 24.1 17.5001 23.75 17.5001H21.25V25.0001H18.6C17.75 22.8125 15.6125 21.2501 13.125 21.2501C10.6375 21.2501 8.5 22.8125 7.65003 25.0001H5V22.3501C7.1875 21.5 8.74997 19.3625 8.74997 16.8751C8.74997 14.3875 7.19999 12.25 5.0125 11.4001L5 8.75002H12.5V6.25006C12.5 5.90006 12.775 5.62506 13.125 5.62506ZM13.125 3.12506C11.4 3.12506 10 4.52506 10 6.25006H5C3.625 6.25006 2.51249 7.37506 2.51249 8.75002V13.5001H2.875C4.7375 13.5001 6.25 15.0125 6.25 16.8751C6.25 18.7375 4.7375 20.2501 2.875 20.2501H2.5V25.0001C2.5 26.375 3.625 27.5 5 27.5H9.75003V27.125C9.75003 25.2625 11.2625 23.75 13.125 23.75C14.9875 23.75 16.5 25.2625 16.5 27.125V27.5H21.25C22.625 27.5 23.75 26.375 23.75 25.0001V20C25.475 20 26.875 18.6001 26.875 16.8751C26.875 15.1501 25.475 13.75 23.75 13.75V8.75002C23.75 7.37506 22.625 6.25006 21.25 6.25006H16.25C16.25 4.52506 14.85 3.12506 13.125 3.12506Z" fill="#714B67"/>
</svg>
