<svg width="30" height="30" viewBox="0 0 30 30" fill="none" xmlns="http://www.w3.org/2000/svg">
<path d="M13.2165 0.227539H12.3087V3.88249C5.47771 4.34951 0.0605469 10.0095 0.0605469 16.9182C0.0605469 24.1315 5.96285 30 13.2165 30C20.1633 30 25.8558 24.6123 26.325 17.8209H30.0006V16.9182C30.0001 7.7147 22.471 0.227539 13.2165 0.227539ZM13.2165 28.1951C6.96196 28.1951 1.87516 23.1359 1.87516 16.9176C1.87516 11.0029 6.47735 6.13745 12.3087 5.67627V17.8204H24.5205C24.0562 23.6183 19.1642 28.1951 13.2165 28.1951ZM26.3703 16.016H14.1233V3.83685V2.059C21.6566 2.50903 27.7057 8.52509 28.1583 16.016H26.3703Z" fill="#212529"/>
</svg>
