<svg width="30" height="30" viewBox="0 0 30 30" fill="none" xmlns="http://www.w3.org/2000/svg">
<path d="M22.6106 23.2875C21.0017 24.7654 18.9974 25.7429 16.8422 26.1007C14.6871 26.4584 12.4744 26.1809 10.4743 25.3021C8.47425 24.4232 6.7733 22.981 5.57921 21.1516C4.38512 19.3222 3.74951 17.1847 3.75 15H5.625C5.62487 16.8884 6.19496 18.7327 7.26065 20.2916C8.32635 21.8504 9.8379 23.0511 11.5975 23.7364C13.357 24.4218 15.2825 24.5598 17.1218 24.1324C18.9611 23.705 20.6285 22.7322 21.9056 21.3412H19.1813C18.9326 21.3412 18.6941 21.2425 18.5183 21.0667C18.3425 20.8909 18.2438 20.6524 18.2438 20.4037C18.2438 20.1551 18.3425 19.9166 18.5183 19.7408C18.6941 19.565 18.9326 19.4662 19.1813 19.4662H23.5481C23.7967 19.4662 24.0352 19.565 24.211 19.7408C24.3868 19.9166 24.4856 20.1551 24.4856 20.4037V24.7669C24.4856 25.0155 24.3868 25.254 24.211 25.4298C24.0352 25.6056 23.7967 25.7044 23.5481 25.7044C23.2995 25.7044 23.061 25.6056 22.8852 25.4298C22.7094 25.254 22.6106 25.0155 22.6106 24.7669V23.2856V23.2875ZM8.09438 8.66062H10.8188C11.0674 8.66062 11.3059 8.7594 11.4817 8.9352C11.6575 9.111 11.7563 9.3495 11.7563 9.59812C11.7563 9.84675 11.6575 10.0853 11.4817 10.2611C11.3059 10.4369 11.0674 10.5356 10.8188 10.5356H6.45C6.20136 10.5356 5.96291 10.4369 5.78709 10.2611C5.61128 10.0853 5.5125 9.84675 5.5125 9.59812V5.23126C5.5125 4.98262 5.61128 4.74416 5.78709 4.56835C5.96291 4.39253 6.20136 4.29376 6.45 4.29376C6.69864 4.29376 6.9371 4.39253 7.11291 4.56835C7.28873 4.74416 7.3875 4.98262 7.3875 5.23126V6.71251C8.99618 5.23276 11.0011 4.25368 13.1572 3.89491C15.3132 3.53613 17.5271 3.81321 19.5283 4.69228C21.5295 5.57134 23.2313 7.01433 24.4256 8.8449C25.62 10.6754 26.2553 12.8143 26.2538 15H24.3788C24.3789 13.1114 23.8087 11.2669 22.7428 9.70785C21.6769 8.1489 20.165 6.94813 18.4051 6.26295C16.6452 5.57776 14.7194 5.44007 12.88 5.8679C11.0405 6.29573 9.37313 7.26914 8.09625 8.66062H8.09438Z" fill="#714B67"/>
<path d="M18.7144 15.4898C18.7344 15.3298 18.7495 15.1697 18.7495 14.9998C18.7495 14.8298 18.7344 14.6698 18.7144 14.5097L19.7694 13.6847C19.8645 13.6097 19.8894 13.4747 19.8294 13.3648L18.8295 11.6348C18.7845 11.5547 18.6994 11.5097 18.6094 11.5097C18.5794 11.5097 18.5494 11.5148 18.5244 11.5247L17.2794 12.0248C17.0194 11.8247 16.7394 11.6597 16.4344 11.5348L16.2444 10.2098C16.2294 10.0898 16.1244 9.99976 15.9994 9.99976H13.9995C13.8744 9.99976 13.7694 10.0898 13.7544 10.2098L13.5645 11.5348C13.2594 11.6597 12.9795 11.8298 12.7194 12.0248L11.4744 11.5247C11.4444 11.5148 11.4144 11.5097 11.3844 11.5097C11.2995 11.5097 11.2144 11.5547 11.1694 11.6348L10.1694 13.3648C10.1044 13.4747 10.1344 13.6097 10.2294 13.6847L11.2845 14.5097C11.2644 14.6698 11.2494 14.8348 11.2494 14.9998C11.2494 15.1648 11.2644 15.3298 11.2845 15.4898L10.2294 16.3148C10.1344 16.3898 10.1094 16.5248 10.1694 16.6348L11.1694 18.3647C11.2144 18.4448 11.2995 18.4898 11.3895 18.4898C11.4195 18.4898 11.4495 18.4847 11.4744 18.4748L12.7194 17.9747C12.9795 18.1748 13.2594 18.3398 13.5645 18.4648L13.7544 19.7897C13.7694 19.9097 13.8744 19.9997 13.9995 19.9997H15.9994C16.1244 19.9997 16.2294 19.9097 16.2444 19.7897L16.4344 18.4648C16.7394 18.3398 17.0194 18.1697 17.2794 17.9747L18.5244 18.4748C18.5544 18.4847 18.5844 18.4898 18.6144 18.4898C18.6994 18.4898 18.7845 18.4448 18.8295 18.3647L19.8294 16.6348C19.8894 16.5248 19.8645 16.3898 19.7694 16.3148L18.7144 15.4898ZM17.7244 14.6348C17.7444 14.7898 17.7495 14.8948 17.7495 14.9998C17.7495 15.1048 17.7394 15.2147 17.7244 15.3647L17.6544 15.9298L18.0994 16.2797L18.6394 16.6997L18.2895 17.3048L17.6544 17.0498L17.1345 16.8398L16.6845 17.1797C16.4694 17.3398 16.2645 17.4598 16.0594 17.5448L15.5295 17.7598L15.4494 18.3248L15.3495 18.9998H14.6494L14.5545 18.3248L14.4744 17.7598L13.9444 17.5448C13.7295 17.4548 13.5294 17.3398 13.3294 17.1898L12.8745 16.8398L12.3444 17.0548L11.7094 17.3098L11.3595 16.7048L11.8995 16.2848L12.3444 15.9347L12.2745 15.3698C12.2595 15.2147 12.2494 15.0998 12.2494 14.9998C12.2494 14.8997 12.2595 14.7848 12.2745 14.6348L12.3444 14.0698L11.8995 13.7198L11.3595 13.2998L11.7094 12.6947L12.3444 12.9497L12.8644 13.1597L13.3144 12.8198C13.5294 12.6598 13.7344 12.5398 13.9395 12.4547L14.4694 12.2398L14.5494 11.6747L14.6494 10.9997H15.3444L15.4395 11.6747L15.5194 12.2398L16.0494 12.4547C16.2645 12.5447 16.4644 12.6598 16.6644 12.8098L17.1195 13.1597L17.6494 12.9448L18.2844 12.6898L18.6345 13.2947L18.0994 13.7198L17.6544 14.0698L17.7244 14.6348ZM14.9994 12.9998C13.8945 12.9998 12.9994 13.8947 12.9994 14.9998C12.9994 16.1048 13.8945 16.9997 14.9994 16.9997C16.1044 16.9997 16.9995 16.1048 16.9995 14.9998C16.9995 13.8947 16.1044 12.9998 14.9994 12.9998ZM14.9994 15.9998C14.4495 15.9998 13.9995 15.5498 13.9995 14.9998C13.9995 14.4497 14.4495 13.9997 14.9994 13.9997C15.5494 13.9997 15.9994 14.4497 15.9994 14.9998C15.9994 15.5498 15.5494 15.9998 14.9994 15.9998Z" fill="#714B67"/>
</svg>
