<svg width="69" height="69" viewBox="0 0 69 69" fill="none" xmlns="http://www.w3.org/2000/svg">
<path fill-rule="evenodd" clip-rule="evenodd" d="M34.4357 69C53.454 69 68.8714 53.5538 68.8714 34.5C68.8714 15.4462 53.454 0 34.4357 0C15.4174 0 0 15.4462 0 34.5C0 53.5538 15.4174 69 34.4357 69Z" fill="#413E65" fill-opacity="0.1"/>
<path d="M27.75 41.5C26.375 41.5 25.2625 42.625 25.2625 44C25.2625 45.375 26.375 46.5 27.75 46.5C29.125 46.5 30.25 45.375 30.25 44C30.25 42.625 29.125 41.5 27.75 41.5ZM40.25 41.5C38.875 41.5 37.7625 42.625 37.7625 44C37.7625 45.375 38.875 46.5 40.25 46.5C41.625 46.5 42.75 45.375 42.75 44C42.75 42.625 41.625 41.5 40.25 41.5ZM29.125 35.25H38.4375C39.375 35.25 40.2 34.7375 40.625 33.9625L45.25 25.2L43.0625 24L38.4375 32.75H29.6625L24.3375 21.5H20.25V24H22.75L27.25 33.4875L25.5625 36.5375C24.65 38.2125 25.85 40.25 27.75 40.25H42.75V37.75H27.75L29.125 35.25ZM34 21.5L39 26.5L34 31.5L32.2375 29.7375L34.2125 27.75H29V25.25H34.2125L32.225 23.2625L34 21.5Z" fill="#413E65"/>
</svg>
