<svg width="69" height="69" viewBox="0 0 69 69" fill="none" xmlns="http://www.w3.org/2000/svg">
<path fill-rule="evenodd" clip-rule="evenodd" d="M34.4357 69C53.454 69 68.8714 53.5538 68.8714 34.5C68.8714 15.4462 53.454 0 34.4357 0C15.4174 0 0 15.4462 0 34.5C0 53.5538 15.4174 69 34.4357 69Z" fill="#5454D4" fill-opacity="0.1"/>
<path d="M43.2875 36.225C43.3375 35.825 43.375 35.425 43.375 35C43.375 34.575 43.3375 34.175 43.2875 33.775L45.925 31.7125C46.1625 31.525 46.225 31.1875 46.075 30.9125L43.575 26.5875C43.4625 26.3875 43.25 26.275 43.025 26.275C42.95 26.275 42.875 26.2875 42.8125 26.3125L39.7 27.5625C39.05 27.0625 38.35 26.65 37.5875 26.3375L37.1125 23.025C37.075 22.725 36.8125 22.5 36.5 22.5H31.5C31.1875 22.5 30.925 22.725 30.8875 23.025L30.4125 26.3375C29.65 26.65 28.95 27.075 28.3 27.5625L25.1875 26.3125C25.1125 26.2875 25.0375 26.275 24.9625 26.275C24.75 26.275 24.5375 26.3875 24.425 26.5875L21.925 30.9125C21.7625 31.1875 21.8375 31.525 22.075 31.7125L24.7125 33.775C24.6625 34.175 24.625 34.5875 24.625 35C24.625 35.4125 24.6625 35.825 24.7125 36.225L22.075 38.2875C21.8375 38.475 21.775 38.8125 21.925 39.0875L24.425 43.4125C24.5375 43.6125 24.75 43.725 24.975 43.725C25.05 43.725 25.125 43.7125 25.1875 43.6875L28.3 42.4375C28.95 42.9375 29.65 43.35 30.4125 43.6625L30.8875 46.975C30.925 47.275 31.1875 47.5 31.5 47.5H36.5C36.8125 47.5 37.075 47.275 37.1125 46.975L37.5875 43.6625C38.35 43.35 39.05 42.925 39.7 42.4375L42.8125 43.6875C42.8875 43.7125 42.9625 43.725 43.0375 43.725C43.25 43.725 43.4625 43.6125 43.575 43.4125L46.075 39.0875C46.225 38.8125 46.1625 38.475 45.925 38.2875L43.2875 36.225V36.225ZM40.8125 34.0875C40.8625 34.475 40.875 34.7375 40.875 35C40.875 35.2625 40.85 35.5375 40.8125 35.9125L40.6375 37.325L41.75 38.2L43.1 39.25L42.225 40.7625L40.6375 40.125L39.3375 39.6L38.2125 40.45C37.675 40.85 37.1625 41.15 36.65 41.3625L35.325 41.9L35.125 43.3125L34.875 45H33.125L32.8875 43.3125L32.6875 41.9L31.3625 41.3625C30.825 41.1375 30.325 40.85 29.825 40.475L28.6875 39.6L27.3625 40.1375L25.775 40.775L24.9 39.2625L26.25 38.2125L27.3625 37.3375L27.1875 35.925C27.15 35.5375 27.125 35.25 27.125 35C27.125 34.75 27.15 34.4625 27.1875 34.0875L27.3625 32.675L26.25 31.8L24.9 30.75L25.775 29.2375L27.3625 29.875L28.6625 30.4L29.7875 29.55C30.325 29.15 30.8375 28.85 31.35 28.6375L32.675 28.1L32.875 26.6875L33.125 25H34.8625L35.1 26.6875L35.3 28.1L36.625 28.6375C37.1625 28.8625 37.6625 29.15 38.1625 29.525L39.3 30.4L40.625 29.8625L42.2125 29.225L43.0875 30.7375L41.75 31.8L40.6375 32.675L40.8125 34.0875ZM34 30C31.2375 30 29 32.2375 29 35C29 37.7625 31.2375 40 34 40C36.7625 40 39 37.7625 39 35C39 32.2375 36.7625 30 34 30ZM34 37.5C32.625 37.5 31.5 36.375 31.5 35C31.5 33.625 32.625 32.5 34 32.5C35.375 32.5 36.5 33.625 36.5 35C36.5 36.375 35.375 37.5 34 37.5Z" fill="#5454D4"/>
</svg>
