<svg width="69" height="69" viewBox="0 0 69 69" fill="none" xmlns="http://www.w3.org/2000/svg">
<path fill-rule="evenodd" clip-rule="evenodd" d="M34.4357 69C53.454 69 68.8714 53.5538 68.8714 34.5C68.8714 15.4462 53.454 0 34.4357 0C15.4174 0 0 15.4462 0 34.5C0 53.5538 15.4174 69 34.4357 69Z" fill="#5454D4" fill-opacity="0.1"/>
<path d="M46.25 23.75H23.75C22.375 23.75 21.25 24.875 21.25 26.25V30H23.75V26.25H46.25V43.75H37.5V46.25H46.25C47.625 46.25 48.75 45.125 48.75 43.75V26.25C48.75 24.875 47.625 23.75 46.25 23.75ZM21.25 42.5V46.25H25C25 44.175 23.325 42.5 21.25 42.5ZM21.25 37.5V40C24.7 40 27.5 42.8 27.5 46.25H30C30 41.4125 26.0875 37.5 21.25 37.5ZM21.25 32.5V35C27.4625 35 32.5 40.0375 32.5 46.25H35C35 38.65 28.8375 32.5 21.25 32.5ZM33.75 33.8625V36.3625L38.125 38.75L42.5 36.3625V33.8625L38.125 36.25L33.75 33.8625ZM38.125 27.5L31.25 31.25L38.125 35L45 31.25L38.125 27.5Z" fill="#5454D4"/>
</svg>
