<svg width="30" height="30" viewBox="0 0 30 30" fill="none" xmlns="http://www.w3.org/2000/svg">
<path d="M28.2626 23.7376L16.9126 12.3876C18.0751 9.4626 17.4751 6.01259 15.1126 3.63759C12.2376 0.762585 7.76265 0.500086 4.57514 2.82509L9.37515 7.63755L7.60013 9.40005L2.81264 4.61259C0.487635 7.78755 0.750135 12.2751 3.62513 15.1375C5.95013 17.4625 9.33765 18.0751 12.2376 16.9876L23.6252 28.3751C24.1127 28.8626 24.9002 28.8626 25.3877 28.3751L28.2626 25.5001C28.7626 25.0251 28.7626 24.2376 28.2626 23.7376ZM24.5126 25.7376L12.6876 13.9126C11.9251 14.4751 11.0751 14.8126 10.1876 14.9376C8.4876 15.1876 6.70013 14.6751 5.40014 13.3751C4.21264 12.2001 3.66263 10.6251 3.75014 9.07507L7.61265 12.9376L12.9126 7.63755L9.0501 3.77509C10.6001 3.68759 12.1626 4.23758 13.3501 5.41259C14.7001 6.76259 15.2126 8.62508 14.9001 10.3626C14.7501 11.2501 14.3751 12.0751 13.8001 12.8126L25.6126 24.6251L24.5126 25.7376Z" fill="#714B67"/>
</svg>
