<svg width="30" height="30" viewBox="0 0 30 30" fill="none" xmlns="http://www.w3.org/2000/svg">
<path d="M26.6008 2.39999H17.0008C16.3408 2.39999 15.8068 2.93999 15.8068 3.59999L15.8008 14.4L18.2008 12H26.6008C27.2608 12 27.8008 11.46 27.8008 10.8V3.59999C27.8008 2.93999 27.2608 2.39999 26.6008 2.39999ZM26.6008 10.8H17.7028L17.3488 11.154L17.0008 11.502V3.59999H26.6008V10.8ZM18.2008 8.39999H19.4008V9.59999H18.2008V8.39999ZM18.2008 6.59999H19.4008V7.79999H18.2008V6.59999ZM18.2008 4.79999H19.4008V5.99999H18.2008V4.79999ZM20.6008 8.39999H23.6008V9.59999H20.6008V8.39999ZM20.6008 6.59999H25.4008V7.79999H20.6008V6.59999ZM20.6008 4.79999H25.4008V5.99999H20.6008V4.79999Z" fill="#714B67"/>
<path d="M10.4004 13.1999C11.5004 13.1999 12.4004 14.0999 12.4004 15.1999C12.4004 16.2999 11.5004 17.1999 10.4004 17.1999C9.3004 17.1999 8.4004 16.2999 8.4004 15.1999C8.4004 14.0999 9.3004 13.1999 10.4004 13.1999ZM10.4004 22.1999C13.1004 22.1999 16.2004 23.4899 16.4004 24.1999V25.1999H4.40038V24.2099C4.60042 23.4899 7.70038 22.1999 10.4004 22.1999ZM10.4004 11.1999C8.1904 11.1999 6.40042 12.9899 6.40042 15.1999C6.40042 17.4099 8.1904 19.1999 10.4004 19.1999C12.6104 19.1999 14.4004 17.4099 14.4004 15.1999C14.4004 12.9899 12.6104 11.1999 10.4004 11.1999ZM10.4004 20.1999C7.73038 20.1999 2.40039 21.5399 2.40039 24.1999V27.1999H18.4004V24.1999C18.4004 21.5399 13.0704 20.1999 10.4004 20.1999Z" fill="#714B67"/>
</svg>
