<svg width="69" height="69" viewBox="0 0 69 69" fill="none" xmlns="http://www.w3.org/2000/svg">
<path fill-rule="evenodd" clip-rule="evenodd" d="M34.4357 69C53.454 69 68.8714 53.5538 68.8714 34.5C68.8714 15.4462 53.454 0 34.4357 0C15.4174 0 0 15.4462 0 34.5C0 53.5538 15.4174 69 34.4357 69Z" fill="#FFF3FC"/>
<path d="M38.375 21.25H28.375C26.65 21.25 25.25 22.65 25.25 24.375V45.625C25.25 47.35 26.65 48.75 28.375 48.75H38.375C40.1 48.75 41.5 47.35 41.5 45.625V24.375C41.5 22.65 40.1 21.25 38.375 21.25ZM33.375 47.5C32.3375 47.5 31.5 46.6625 31.5 45.625C31.5 44.5875 32.3375 43.75 33.375 43.75C34.4125 43.75 35.25 44.5875 35.25 45.625C35.25 46.6625 34.4125 47.5 33.375 47.5ZM39 42.5H27.75V25H39V42.5Z" fill="#714B67"/>
</svg>
