<svg width="69" height="69" viewBox="0 0 69 69" fill="none" xmlns="http://www.w3.org/2000/svg">
<path fill-rule="evenodd" clip-rule="evenodd" d="M34.4357 69C53.454 69 68.8714 53.5538 68.8714 34.5C68.8714 15.4462 53.454 0 34.4357 0C15.4174 0 0 15.4462 0 34.5C0 53.5538 15.4174 69 34.4357 69Z" fill="#413E65" fill-opacity="0.1"/>
<path d="M21.5 22.5H46.5" stroke="#413E65" stroke-width="2" stroke-linecap="round" stroke-linejoin="round"/>
<path d="M42.75 22.5H25.25C24.5596 22.5 24 23.0596 24 23.75V46.25C24 46.9404 24.5596 47.5 25.25 47.5H42.75C43.4404 47.5 44 46.9404 44 46.25V23.75C44 23.0596 43.4404 22.5 42.75 22.5Z" stroke="#413E65" stroke-width="2" stroke-linejoin="round"/>
<path d="M31.5 40H36.5V47.5H31.5V40Z" stroke="#413E65" stroke-width="2" stroke-linecap="round" stroke-linejoin="round"/>
<path d="M38.375 31.25H39.625M28.375 27.5H29.625H28.375ZM28.375 31.25H29.625H28.375ZM33.375 27.5H34.625H33.375ZM33.375 31.25H34.625H33.375ZM38.375 27.5H39.625H38.375Z" stroke="#413E65" stroke-width="2" stroke-linecap="round"/>
<path d="M36.5 40H37.75C38.095 40 38.3812 39.7175 38.315 39.3788C37.97 37.6038 36.1694 36.25 34 36.25C31.8312 36.25 30.03 37.6031 29.685 39.3788C29.6188 39.7175 29.905 40 30.25 40H31.5M21.5 47.5H46.5H21.5Z" stroke="#413E65" stroke-width="2" stroke-linecap="round" stroke-linejoin="round"/>
</svg>
