<?xml version="1.0" encoding="UTF-8"?>
<svg width="30px" height="30px" viewBox="0 0 30 30" version="1.1" xmlns="http://www.w3.org/2000/svg" xmlns:xlink="http://www.w3.org/1999/xlink">
    <title>icon-licensing-consultancy-dark</title>
    <g id="Page-1" stroke="none" stroke-width="1" fill="none" fill-rule="evenodd">
        <g id="icon-licensing-consultancy-dark" fill-rule="nonzero">
            <rect id="Rectangle" fill-opacity="0" fill="#FFFFFF" x="0" y="0" width="30" height="30"></rect>
            <g id="Group" transform="translate(5.833980, 1.913390)" fill="#714B67">
                <path d="M3.66602,11.48161 L9.16602,11.48161 L9.16602,13.39531 L3.66602,13.39531 L3.66602,11.48161 Z M3.66602,3.82735 L14.66602,3.82735 L14.66602,5.74091 L3.66602,5.74091 L3.66602,3.82735 Z M3.66602,7.65453 L14.66602,7.65453 L14.66602,9.56811 L3.66602,9.56811 L3.66602,7.65453 Z M3.66602,21.04961 L9.16602,21.04961 L9.16602,22.96311 L3.66602,22.96311 L3.66602,21.04961 Z" id="Shape"></path>
                <path d="M9.16672,26.79011 L1.83334,26.79011 C1.34726,26.78961 0.88122,26.58781 0.53751,26.22911 C0.1938,25.87031 0.00049,25.38391 0,24.87651 L0,1.91358 C0.00049,1.40622 0.1938,0.91979 0.53751,0.56103 C0.88122,0.20228 1.34726,0.00051 1.83334,2.22044605e-16 L16.50002,2.22044605e-16 C16.98612,0.00051 17.45212,0.20228 17.79582,0.56103 C18.13952,0.91979 18.33282,1.40622 18.33332,1.91358 L18.33332,9.56791 L16.50002,9.56791 L16.50002,1.91358 L1.83334,1.91358 L1.83334,24.87651 L9.16672,24.87651 L9.16672,26.79011 Z" id="Path"></path>
                <path d="M15.76712,12.05581 C13.28382,12.05581 11.27542,14.15221 11.27542,16.74411 C11.27542,20.26031 15.76712,25.45091 15.76712,25.45091 C15.76712,25.45091 20.25872,20.26031 20.25872,16.74411 C20.25872,14.15221 18.25032,12.05581 15.76712,12.05581 Z M12.55872,16.74411 C12.55872,14.89561 13.99612,13.39531 15.76712,13.39531 C17.53812,13.39531 18.97542,14.89561 18.97542,16.74411 C18.97542,18.67301 17.12742,21.55961 15.76712,23.36121 C14.43242,21.57301 12.55872,18.65291 12.55872,16.74411 Z" id="Shape"></path>
                <path d="M15.76632,18.41851 C16.65222,18.41851 17.37042,17.66881 17.37042,16.74411 C17.37042,15.81931 16.65222,15.06971 15.76632,15.06971 C14.88032,15.06971 14.16212,15.81931 14.16212,16.74411 C14.16212,17.66881 14.88032,18.41851 15.76632,18.41851 Z" id="Path"></path>
            </g>
        </g>
    </g>
</svg>