<svg width="70" height="69" viewBox="0 0 70 69" fill="none" xmlns="http://www.w3.org/2000/svg">
<path fill-rule="evenodd" clip-rule="evenodd" d="M35.4328 69C54.4511 69 69.8685 53.5538 69.8685 34.5C69.8685 15.4462 54.4511 0 35.4328 0C16.4145 0 0.99707 15.4462 0.99707 34.5C0.99707 53.5538 16.4145 69 35.4328 69Z" fill="#FFF3FC"/>
<path d="M47.3751 31.1125L46.0626 25.65C45.7876 24.525 44.8126 23.75 43.6751 23.75H26.3126C25.1876 23.75 24.2001 24.5375 23.9376 25.65L22.6251 31.1125C22.3251 32.3875 22.6001 33.6875 23.4001 34.7125C23.5001 34.85 23.6376 34.95 23.7501 35.075V43.75C23.7501 45.125 24.8751 46.25 26.2501 46.25H43.7501C45.1251 46.25 46.2501 45.125 46.2501 43.75V35.075C46.3626 34.9625 46.5001 34.85 46.6001 34.725C47.4001 33.7 47.6876 32.3875 47.3751 31.1125ZM43.6376 26.2375L44.9501 31.7C45.0751 32.225 44.9626 32.75 44.6376 33.1625C44.4626 33.3875 44.0876 33.75 43.4626 33.75C42.7001 33.75 42.0376 33.1375 41.9501 32.325L41.2251 26.25L43.6376 26.2375ZM36.2501 26.25H38.7001L39.3751 31.9C39.4376 32.3875 39.2876 32.875 38.9626 33.2375C38.6876 33.5625 38.2876 33.75 37.7751 33.75C36.9376 33.75 36.2501 33.0125 36.2501 32.1125V26.25ZM30.6126 31.9L31.3001 26.25H33.7501V32.1125C33.7501 33.0125 33.0626 33.75 32.1376 33.75C31.7126 33.75 31.3251 33.5625 31.0251 33.2375C30.7126 32.875 30.5626 32.3875 30.6126 31.9ZM25.0501 31.7L26.3126 26.25H28.7751L28.0501 32.325C27.9501 33.1375 27.3001 33.75 26.5376 33.75C25.9251 33.75 25.5376 33.3875 25.3751 33.1625C25.0376 32.7625 24.9251 32.225 25.0501 31.7ZM26.2501 43.75V36.2125C26.3501 36.225 26.4376 36.25 26.5376 36.25C27.6251 36.25 28.6126 35.8 29.3376 35.0625C30.0876 35.8125 31.0876 36.25 32.2251 36.25C33.3126 36.25 34.2876 35.8 35.0126 35.0875C35.7501 35.8 36.7501 36.25 37.8751 36.25C38.9251 36.25 39.9251 35.8125 40.6751 35.0625C41.4001 35.8 42.3876 36.25 43.4751 36.25C43.5751 36.25 43.6626 36.225 43.7626 36.2125V43.75H26.2501Z" fill="#714B67"/>
</svg>
