<svg width="69" height="69" viewBox="0 0 69 69" fill="none" xmlns="http://www.w3.org/2000/svg">
<path fill-rule="evenodd" clip-rule="evenodd" d="M34.4357 69C53.454 69 68.8714 53.5538 68.8714 34.5C68.8714 15.4462 53.454 0 34.4357 0C15.4174 0 0 15.4462 0 34.5C0 53.5538 15.4174 69 34.4357 69Z" fill="#F04037" fill-opacity="0.097195"/>
<path d="M49 50H19V32L29.5 27.5V30.5L37 27.5V32H41.5L43 20H47.5L49 32V50ZM34 31.925L26.5 34.925V32L22 33.98V47H46V35H34V31.925ZM32.5 44H35.5V38H32.5V44ZM26.5 44H29.5V38H26.5V44ZM41.5 38H38.5V44H41.5V38Z" fill="#F04037"/>
</svg>
