<svg width="40" height="40" viewBox="0 0 40 40" fill="none" xmlns="http://www.w3.org/2000/svg">
<path d="M19.9998 10.0001V15.0001L26.6665 8.33341L19.9998 1.66675V6.66675C12.6332 6.66675 6.6665 12.6334 6.6665 20.0001C6.6665 22.6167 7.43317 25.0501 8.73317 27.1001L11.1665 24.6667C10.4165 23.2834 9.99984 21.6834 9.99984 20.0001C9.99984 14.4834 14.4832 10.0001 19.9998 10.0001ZM31.2665 12.9001L28.8332 15.3334C29.5665 16.7334 29.9998 18.3167 29.9998 20.0001C29.9998 25.5167 25.5165 30.0001 19.9998 30.0001V25.0001L13.3332 31.6667L19.9998 38.3334V33.3334C27.3665 33.3334 33.3332 27.3667 33.3332 20.0001C33.3332 17.3834 32.5665 14.9501 31.2665 12.9001Z" fill="#714B67"/>
</svg>
