<svg width="30" height="30" viewBox="0 0 30 30" fill="none" xmlns="http://www.w3.org/2000/svg">
<path d="M24.2871 16.225C24.337 15.8249 24.3745 15.425 24.3745 14.9999C24.3745 14.575 24.337 14.1749 24.2871 13.775L26.9245 11.7125C27.1621 11.525 27.2245 11.1875 27.0745 10.9124L24.5746 6.58744C24.4621 6.38744 24.2496 6.27494 24.0246 6.27494C23.9496 6.27494 23.8746 6.28744 23.812 6.31244L20.6995 7.56247C20.0496 7.06244 19.3495 6.64994 18.5871 6.33744L18.112 3.02494C18.0745 2.72494 17.812 2.49994 17.4996 2.49994H12.4996C12.187 2.49994 11.9245 2.72494 11.887 3.02494L11.4121 6.33744C10.6495 6.64994 9.94957 7.07494 9.29954 7.56247L6.18706 6.31244C6.11206 6.28744 6.03706 6.27494 5.96206 6.27494C5.74956 6.27494 5.53705 6.38744 5.42455 6.58744L2.92456 10.9124C2.76205 11.1875 2.83705 11.525 3.07456 11.7125L5.71206 13.775C5.66206 14.1749 5.62456 14.5874 5.62456 14.9999C5.62456 15.4124 5.66206 15.8249 5.71206 16.225L3.07456 18.2875C2.83705 18.475 2.77456 18.8125 2.92456 19.0874L5.42455 23.4125C5.53705 23.6125 5.74956 23.725 5.97456 23.725C6.04956 23.725 6.12456 23.7125 6.18706 23.6875L9.29954 22.4375C9.94957 22.9375 10.6495 23.35 11.4121 23.6624L11.887 26.9749C11.9245 27.2749 12.187 27.5 12.4996 27.5H17.4996C17.812 27.5 18.0745 27.2749 18.112 26.9749L18.5871 23.6624C19.3495 23.35 20.0496 22.925 20.6995 22.4375L23.812 23.6875C23.887 23.7125 23.962 23.725 24.037 23.725C24.2496 23.725 24.4621 23.6125 24.5746 23.4125L27.0745 19.0874C27.2245 18.8125 27.1621 18.475 26.9245 18.2875L24.2871 16.225ZM21.8121 14.0875C21.862 14.4749 21.8746 14.7374 21.8746 14.9999C21.8746 15.2624 21.8496 15.5375 21.8121 15.9125L21.637 17.3249L22.7496 18.2L24.0996 19.25L23.2246 20.7625L21.637 20.125L20.3371 19.6L19.2121 20.45C18.6745 20.8499 18.1621 21.1499 17.6496 21.3625L16.3246 21.8999L16.1245 23.3125L15.8746 25H14.1246L13.8871 23.3125L13.687 21.8999L12.3621 21.3625C11.8246 21.1375 11.3245 20.8499 10.8246 20.4749L9.68707 19.6L8.36204 20.1374L6.77455 20.7749L5.89956 19.2625L7.24956 18.2125L8.36204 17.3375L8.18707 15.925C8.14957 15.5374 8.12459 15.25 8.12459 14.9999C8.12459 14.75 8.14957 14.4625 8.18707 14.0875L8.36204 12.6749L7.24956 11.8L5.89956 10.75L6.77455 9.23745L8.36204 9.87495L9.66209 10.4L10.7871 9.54998C11.3245 9.14993 11.8371 8.84992 12.3496 8.63745L13.6746 8.09993L13.8745 6.68744L14.1246 4.99994H15.862L16.0996 6.68744L16.2996 8.09993L17.6245 8.63745C18.1621 8.86245 18.6621 9.14992 19.162 9.52492L20.2996 10.4L21.6246 9.86243L23.212 9.22493L24.0871 10.7375L22.7496 11.8L21.637 12.6749L21.8121 14.0875ZM14.9995 9.99997C12.2371 9.99997 9.99959 12.2375 9.99959 14.9999C9.99959 17.7625 12.2371 20 14.9995 20C17.7621 20 19.9996 17.7625 19.9996 14.9999C19.9996 12.2375 17.7621 9.99997 14.9995 9.99997ZM14.9995 17.5C13.6246 17.5 12.4996 16.375 12.4996 14.9999C12.4996 13.625 13.6246 12.4999 14.9995 12.4999C16.3746 12.4999 17.4996 13.625 17.4996 14.9999C17.4996 16.375 16.3746 17.5 14.9995 17.5Z" fill="#714B67"/>
</svg>
